<svg xmlns="http://www.w3.org/2000/svg" width="102" height="84" viewBox="0 0 102 84">
  <path fill="#23a9e1" d="M1.1.7l49.7 58.4 49.4-58L1.1.7z"/>
  <path d="M80.1 17.3l-15.2.1c6-7 8.7-6.2 15.2 0zM38.8 22.7h26.8c-2-1.2-6.8-7-9.4-5C56 18 48.7 9 44 13.4c-4.2 3.8-6.2-.5-11 2.5-5.3 3.6 3.2 5.7 5.9 6.9z" fill="#fff"/>
  <path d="M51 0H0v22.5L50.8 84l.3-.4L102 23.2V0zm0 57l-.2.5-47-55.7h94.7z" fill="#491213"/>
  <path d="M50.8 57.5l.3-.4 27.6-32.3c-6.9 1-11.9 6-18.6 5-3.4-.6-3.5-2.5-4.5-4.5-.7-1.5-2-1.3-3.5-1.9s-2.3-1.7-5.2-1c-2.5.5-2.8 4.5-6 4.2-1.7 0-1.8-2.5-4.2-5.5-6.4-7.6-12.2-6.5-16.3.5z" fill="#491213"/>
  <path fill="#23a9e1" d="M46.7 70.9l4.1-6.5 4 6.5-4 6.5-4.1-6.5z"/>
  <path d="M23.4 32.3a2.8 2.8 0 0 1 .8 2c0 .7-1 1.6-.3 2l2.3-3c-.7 0-5.4-5.8-5.5-6.4l-3.2 1.8c.2.6 1.3 0 1.9 0a3 3 0 0 1 2 1.1c-1.8 1.4-6 5-6.4 5-.2 0-1.1-.5-1.1 0 0 .3.8 1 1 1.2l2.2 2.7c.6-.3 0-.7.2-1.3s5-4.2 6-5.2zM18 25.3c.5-.1.7.4 1 0l-2.4-3c-.4-.4-.9-1-.7 0 0 .6-6.2 5.7-6.6 5.8s-.7-.4-1 .1l2.1 2.6.8 1c.3.3.2-.8.2-.7 0-.5.5-1 .9-1.2a60.7 60.7 0 0 1 5.8-4.6zM9.3 24.4a3.2 3.2 0 0 1-4.3-2c-.5-1.9.7-3.8 2.1-4.8s3.6-1 4.4.8a3.6 3.6 0 0 1 0 2.5c-.2.5-.7 1 0 1.3l2.6-3.3c-1-.6-1.5-1.7-2.3-2.6A5.9 5.9 0 0 0 8.3 14c-3-.4-5.6 2.6-5.9 5.3a5.7 5.7 0 0 0 1.3 4c.8 1 1.9 1.6 2.4 2.7a22.6 22.6 0 0 0 3.3-1.3 1.6 1.6 0 0 0-.1-.3zM48.7 60.8c-1.2-.8-4-4.7-4.6-5.4l-.3-.4a2.3 2.3 0 0 0-.3.2c-.1.1.2.6 0 .8-.8 1.3-5.8 5-6 5.2-.6.4-1.2-.2-1.5.3a45 45 0 0 0 3 3.6c.5 0 .1-.8.2-1a31.6 31.6 0 0 1 3.6-3.2c.3-.3.7.4.9.7a1.8 1.8 0 0 1 .3 1.6c-.2.4-.8 1-.3 1.2l2.6-3c.3-.3-.5 0-.4-.1a1 1 0 0 1-1.1 0c-.1-.1-1.1-1.1-1-1.2a4.6 4.6 0 0 1 1.5-1.1c.9-.2 1.6 1.5 1.7 2.1a3.4 3.4 0 0 1 0 1.8c-.2.4-.6.7 0 1l2-3a.7.7 0 0 1-.3-.1c-.1-.1.1 0 0 0zM38.4 56.6a5.3 5.3 0 0 0 .8-7.3 5.4 5.4 0 0 0-7.8-1 5.3 5.3 0 0 0-.8 7.3 5.4 5.4 0 0 0 7.8 1c1.2-1 0 .1 0 0zM38 52a7.5 7.5 0 0 1-3.7 3.7c-1.9.7-3.1-.9-2.4-2.6a7.5 7.5 0 0 1 3.7-3.7c1.9-.7 3.1.9 2.4 2.6-.4.9 0-.2 0 0zM32 42c.5 0 1 .6 1.3 0L31 39.4c-.6.3 0 .6-.2 1s-2.6.8-3.2 1a15.9 15.9 0 0 1 1.2-3c.5-.4.9.5 1.3 0L27.3 35c-.3-.4-.6-1-1-.7a8.4 8.4 0 0 1 0 1.7c-.2.3-1 3.7-2 4.5a21.6 21.6 0 0 1-2.7 2.1c-.6.2-.9-.6-1.2 0l2.5 3c0 .2.6.9.7.9.5 0 0-.9.1-1 .2-.5 2.5-2.8 3.5-3A19.5 19.5 0 0 1 32 42z" fill="#fff"/>
  <path d="M25.7 22.9c-4-.2-2.4-4 .4-4.8s8.1 1.7 9.9 3.3c-2.8 1-6.4.8-9.5 1-.2-3.2-1-2-.8.5zM26.7 27.7c-2-1.6-1.4-5.3 1.8-4.1 4 2-.9 3.2-1.8 4.1zM35.2 35.4c-8.6 0-2.8-13.3.2-12.5 3.3 1 3 12.6-.2 12.5zM41.4 31c-.9 2.6-2.4 3-2.2 0 .1-3.5 2.4-2.7 4.9-4 2-1.1 3.1-5.2 6.7-2.8 1.5 1.1 3.3.2 3.8 1.9 0-.1-4.5 10.3-2 10.3-5 0-2.8-6-.9-10-1.8 1-4.8 6.8-2.4 7.7-1.2 1.7-5.2 4-7.2 2.3-1.6-1.2-.7-3.3-.7-5.3zM45.5 40.7c-3.5 1-8.2-1.2-2.6-2.4 3.5-.7 7.3.8 2.6 2.4zM49.9 40.5c-.8-1.6.5-3.6 2.6-2.2 1.9 1.3-.8 3.2-2.7 2.2zM46.9 45.2c-2.4-.7-10.6-.5-5.2-2.7 1.6-.7 10.2 0 5.2 2.7zM50.1 44.9c0-1-.5-2.7 1.4-2 2.2.9-1.4 2.7-1.4 2zM57.4 48.5c-1.5-1.2-3-1.3-4.3 0-1.8-3.3-8.3-2.2-11.4-2.6 1.7 4 15 4.8 15.7 2.6zM55.5 51c-3.2-.1-6.7-.6-9.7 0 1.9.5 6.4 1.9 2.2 3 1.5 2.2 4 2 5.6.1A15.5 15.5 0 0 1 52 53c1.7-.3 3.2-1.3 3.5-2zM59 47c-5.2-3-4-5.4.4-7.5 2.3-1.1 7.4-5.2 9.5-3.9l-9.8 11.5z" fill="#dc6243"/>
  <path d="M55.3 39.8c-4.5-4.6 6.7-4.2 8.5-5.8 1.3.4 10.8-8.3 13.1-7.7-1.7 1.9-5.2 8.1-7.8 8.1-2 0-4-.3-5.5 1.1-2.2 2-6 3.1-8.3 4.3z" fill="#f49774"/>
  <path d="M56.8 34.2c-2.5 1.3-4.8-4-.6-3.4 2.8.3 5.7-.3 8.4.2a8.7 8.7 0 0 1-7.8 3.2z" fill="#f4b1a4"/>
  <path d="M69.4 52.5a5 5 0 0 1 .3 2c-.2.8-1 2.9-2.2 2.3a18.3 18.3 0 0 1-3.2-2.5c.8-1 1.5-1.8 2.8-1.3.4 0 .7 0 .3-.3s-3-2-3.2-1.8.5.9.2 1.5a7 7 0 0 1-1 1.2c-.7-.6-1.9-1.3-1-2.3a3.7 3.7 0 0 1 2-1.3c.7-.1 2 .4 2-.2l-3.2-1.6c.2.8-3.3 4.5-4.1 5.5-.1.1-.7.6-.7.8 0 .4.7 0 .7 0 .5-.1 6.8 5.1 7 5.5s-.2.6 0 .7l.2.2c.4-.5 4.6-6 5.4-6.2L69.4 51c-.7.3-.1 1 0 1.5zM63.3 59.2c-2.1-1.4-5.7 1.2-6.2 1.5-1 .5-1.8-.6-1.3-1.5a2.8 2.8 0 0 1 2.4-1.3c.2 0 1.3.2 1.4 0s.3-.2 0-.3l-2.5-1.8c-.2 1.1-1.4 1.8-2 2.5a4.7 4.7 0 0 0-1.6 3.2 3 3 0 0 0 1.7 2.6 3.3 3.3 0 0 0 3.3-.5 19.3 19.3 0 0 1 2-1.2c1-.4 2.3 0 2 1.3A3.6 3.6 0 0 1 60 66a3.3 3.3 0 0 1-1.9 0c-.4-.2-1-.8-1.2-.2l3.5 2.5a2.3 2.3 0 0 1 1-1.5 11.7 11.7 0 0 0 2-2.1c1.2-1.7 1.6-4-.1-5.5zM63.3 59.2c.9.6-.6-.5 0 0zM100 19.6c-.7.8-8.4-2.3-9-2.7-.2-.2-.2-1.4-.6-.9L89 17.5 88 19c-.3.3-.6.5 0 .7.8-.4 5.4 7.4 5 8.5-.8.4-7-5-7.1-5.4 0-.2.2-1-.2-1-.3 0-.8 1-1 1l-.8 1.2c.3.5.5 0 1 0a13.2 13.2 0 0 1 2.2 1.7h-3c-.8.2-.4-.6-1-.8l-2.2 2.7-1.3 1.6c-.1.1 0 0 0 .1.3.3 0 .2.5 0s6.6 5 6.8 5.2c.4.5-.1 1 .4 1.2l1.8-2.1c0-.1.1-.1 0-.2-.4-.4-.5.2-1 .1s-4.4-3.3-6-4.6l8.3-.3c.3 0 1.2 1 1 1.2s-.4.6.1.8L93 29l.2-.3a.7.7 0 0 0 .2-.2l.2-.3c.4-.4 1.8-2 1.6-2.1-.4-.4-.6.5-1.3 0a12.9 12.9 0 0 1-1.4-2.2c-.3-.5.6-1 1-1.1.8-.5 3.3-1.2 3.5.3 0 .3-.3.6 0 .7s.1.3.2.2l3.3-4a1.5 1.5 0 0 0-.3-.3zm-7.3 2.2h-.1a5.7 5.7 0 0 0-1 .7L90.2 20l3.5 1.4a3.8 3.8 0 0 0-1 .5zM82.9 33a5.5 5.5 0 1 0 .6 7.6 5.3 5.3 0 0 0-.6-7.6zm-.3 6.6c-1.2 1.3-3.4.1-4.5-.7s-3.1-2.6-1.9-4.1c1-1.3 3.2-.2 4.2.5s3.5 2.6 2.3 4.2l-.1.1z" fill="#fff"/>
  <path d="M82.9 33c1.2 1-.3-.2 0 0zM82.6 39.6zM76.3 42.1c0 .1.2.3 0 0-3-2.2-6.3-1.5-8.5 1.1l-3 3.6c.3.5.8-.1 1.3.2s6.2 5 6.3 5.3c.2.5-.2.6.2 1a41.4 41.4 0 0 0 5-6.3 4.3 4.3 0 0 0-1.3-4.9zM75 49l-.7.6c-.3.3-6.4-4.6-6.2-5a4.4 4.4 0 0 1 3.6-1.2c2.2.6 5.2 3.3 3.3 5.6z" fill="#fff"/>
</svg>
