<svg xmlns="http://www.w3.org/2000/svg" width="187" height="96" viewBox="0 0 187 96">
  <path d="M187 0H0l80.6 90a17 17 0 0 0 25.8 0z" fill="#81b3d3"/>
  <path fill="#23a9e1" d="M43.3.7l49.6 58.1 49.5-57.7L43.3.7z"/>
  <path d="M122.3 17.3H107c6-6.9 8.7-6.1 15.2 0zM81 22.6h26.7c-2-1.2-6.7-7-9.3-4.9-.2.2-7.5-8.8-12.3-4.5-4.2 3.8-6.1-.5-10.9 2.5-5.4 3.6 3.1 5.7 5.8 6.9z" fill="#fff"/>
  <path d="M93.3 0h-51v22.4l50.6 61.2.4-.4L144 23.1V0zM55 1.8h5.5v17.1L55 12.4zm-.8 9.7l-5-5.9V1.8h5zm19.4-2.7l-5.8-7h5.8zm-6.7 3.8L61.3 1.8h5.6zm-5.6-9.2l5.5 10.7a58.1 58.1 0 0 0-5.5 4.9zm6.4-.5l5.6 6.9a55 55 0 0 0-5.6 3.6zm6.7-.2L79 6.9a48.8 48.8 0 0 0-4.7 2.3zm5.5 3.9l-5.4-4.8h6v4.5zm19.2-4.8h5l-5 2.4zm-5.8 0h4.4l-4.4 2zm-1 2l-4.2-2h4.3zm-5.4.5l-5.1-2.5h5zm-5.6-1.9L86 4.7a39 39 0 0 0-4.7 1.4zm6.3 0L91.1 4a32.3 32.3 0 0 0-3.5.4zm10.5 0v2a33.4 33.4 0 0 0-3.4-.4zm6.5 0v3.7a40.3 40.3 0 0 0-4.8-1.3zm.7-.6h6L106 6.6l-.5-.2V1.8zm13.6 0h5.6L119 12.6zm-6.6 0h5.7l-5.8 7zm-.8.9v6.5a51 51 0 0 0-4.8-2.3zm6.6.2v10.4l-2.2-1.5-3.4-2zm6.5.5v15.2A63.2 63.2 0 0 0 119 14zm.8 16V1.7h5.4V13l-5.4 6.3zm6.2-17.6h5v4.6l-5 5.8zm-83.1 0v3l-2.5-3zm12.9 18.1l.1.2a56.8 56.8 0 0 1 9.2-7.6A41 41 0 0 1 93 4.9a43 43 0 0 1 22.4 7.7 60.2 60.2 0 0 1 9.5 7.5l-3.9 4.6c-7 1-11.9 6-18.6 4.9-3.4-.6-3.5-2.5-4.5-4.4-.8-1.5-2-1.3-3.5-2s-2.3-1.7-5.2-1c-2.5.6-2.8 4.5-6 4.3-1.6-.1-1.8-2.5-4.2-5.5-6.3-7.5-12.2-6.5-16.3.5L93 57.2zm76-14.4V1.8h3.2z" fill="#491213"/>
  <path fill="#23a9e1" d="M88.9 70.6l4-6.5 4.1 6.5-4.1 6.5-4-6.5z"/>
  <path d="M65.6 32.1a2.8 2.8 0 0 1 .8 2.1c0 .6-1 1.6-.3 1.9l2.3-2.9c-.6-.1-5.4-5.8-5.5-6.4l-3.1 1.7c.1.7 1.3 0 1.8 0a3 3 0 0 1 2 1.2c-1.7 1.4-6 5-6.4 5-.2 0-1-.5-1 0 0 .3.8 1 1 1.2l2.2 2.6c.6-.2-.1-.7.2-1.2s4.9-4.3 6-5.2zM60.3 25.2c.5-.1.6.4 1 0l-2.4-3c-.4-.4-.9-.9-.7 0 0 .6-6.2 5.7-6.6 5.8s-.7-.4-1 .1l2.1 2.6.8.9c.3.3.2-.7.2-.6 0-.5.5-1 .9-1.2a60.6 60.6 0 0 1 5.7-4.6zM51.5 24.3a3.2 3.2 0 0 1-4.2-2c-.5-1.9.6-3.8 2-4.8s3.7-1 4.5.8a3.6 3.6 0 0 1-.1 2.5c-.2.5-.6 1 0 1.3l2.6-3.3c-1-.6-1.5-1.7-2.3-2.6a5.9 5.9 0 0 0-3.5-2.2c-2.8-.4-5.5 2.5-5.8 5.2a5.7 5.7 0 0 0 1.3 4c.7 1 1.8 1.6 2.4 2.7a22.6 22.6 0 0 0 3.3-1.2 1.5 1.5 0 0 0-.2-.4zM90.9 60.5c-1.2-.8-4-4.7-4.6-5.3l-.3-.4a2.2 2.2 0 0 0-.3.2c-.1.1.2.6 0 .8-.8 1.3-5.8 5-6 5.2-.6.4-1.2-.2-1.5.3a45.3 45.3 0 0 0 3 3.6c.5 0 .2-.8.2-1a31.5 31.5 0 0 1 3.6-3.2c.3-.3.7.4.9.7a1.8 1.8 0 0 1 .3 1.6c-.1.3-.7.9-.3 1.1l2.7-3c.2-.3-.6 0-.5 0A1 1 0 0 1 87 61c-.1 0-1-1-1-1.2a4.6 4.6 0 0 1 1.5-1c.9-.3 1.6 1.5 1.7 2a3.4 3.4 0 0 1 0 1.8c-.2.4-.5.7 0 1l2-3a.7.7 0 0 1-.3 0c-.1-.2.1 0 0 0zM80.7 56.4a5.3 5.3 0 0 0 .7-7.3 5.4 5.4 0 0 0-7.8-1 5.3 5.3 0 0 0-.8 7.3 5.5 5.5 0 0 0 7.8 1c1.2-1 0 0 0 0zm-.5-4.7a7.4 7.4 0 0 1-3.8 3.6c-1.8.7-3-.8-2.3-2.5a7.5 7.5 0 0 1 3.7-3.7c1.9-.7 3 .9 2.4 2.6-.4.8 0-.2 0 0zM74.2 41.9c.5 0 1 .5 1.3 0l-2.3-2.7c-.6.3 0 .6-.2 1s-2.5.8-3.1 1a15.7 15.7 0 0 1 1.1-2.9c.5-.4.9.4 1.3-.1l-2.8-3.3c-.3-.3-.5-1-1-.7a8.3 8.3 0 0 1 0 1.8c-.1.2-1 3.6-2 4.5a21.5 21.5 0 0 1-2.7 2c-.5.2-.8-.5-1.2 0l2.5 3 .8.9c.5 0 0-1 .1-1.1.1-.4 2.5-2.7 3.5-2.9a19.5 19.5 0 0 1 4.7-.5z" fill="#fff"/>
  <path d="M68 22.8c-4.1-.2-2.4-4 .3-4.8s8.1 1.7 9.9 3.4c-2.8.8-6.4.7-9.5.8-.2-3-1-2-.8.6zM77.4 35.3c-8.6-.1-2.8-13.3.2-12.5 3.4 1 3 12.6-.2 12.5zM83.6 31c-.9 2.5-2.4 3-2.2 0 .1-3.6 2.4-2.7 4.9-4 2-1.2 3.1-5.3 6.7-2.8 1.5 1 3.3.2 3.8 1.8 0 0-4.5 10.3-2 10.3-5 0-2.8-6-.9-9.9-1.8.9-4.8 6.7-2.4 7.6-1.2 1.7-5.2 4-7.2 2.3-1.6-1.3-.7-3.3-.7-5.3zM87.7 40.5c-3.5 1-8.2-1.2-2.5-2.3 3.4-.7 7.2.8 2.5 2.3zM92 40.4c-.7-1.7.6-3.6 2.7-2.2 1.9 1.2-.8 3-2.6 2.2zM89.1 45c-2.4-.7-10.6-.6-5.2-2.8 1.6-.6 10.1.1 5.2 2.8zM99.5 48.3c-1.4-1.2-2.9-1.3-4.2 0C93.5 45 87 46.1 84 45.7c1.7 4 15 4.7 15.7 2.6zM97.7 50.7c-3.2-.1-6.7-.5-9.7.1 1.9.5 6.4 1.8 2.2 3 1.5 2 4 2 5.6 0a15.4 15.4 0 0 1-1.6-1c1.7-.3 3.2-1.3 3.5-2zM101.3 46.9c-5.3-3.1-4-5.4.3-7.6 2.3-1.1 7.3-5.2 9.5-3.8l-9.9 11.4z" fill="#dc6243"/>
  <path d="M97.5 39.6c-4.5-4.5 6.7-4.1 8.5-5.7 1.3.4 10.8-8.3 13-7.7-1.6 1.9-5.2 8-7.7 8-2 0-4-.2-5.5 1.1-2.2 2-6 3.1-8.3 4.3z" fill="#f49774"/>
  <path d="M99 34c-2.5 1.3-4.8-3.9-.6-3.4 2.8.4 5.7-.2 8.4.2A8.7 8.7 0 0 1 99 34z" fill="#f4b1a4"/>
  <path d="M111.6 52.2a5 5 0 0 1 .2 2c0 .9-1 3-2.2 2.4a18.2 18.2 0 0 1-3.1-2.6c.8-1 1.5-1.7 2.8-1.3.4.1.7 0 .3-.3s-3.1-2-3.3-1.7.6.8.3 1.4a7 7 0 0 1-1 1.2c-.7-.6-1.9-1.2-1-2.2a3.7 3.7 0 0 1 2-1.3c.6-.2 2 .3 2-.3l-3.2-1.5c.2.8-3.3 4.5-4.1 5.4-.1.2-.7.6-.7.8 0 .5.6.1.7.1.5-.2 6.8 5.1 7 5.5s-.3.5 0 .7l.2.2c.4-.5 4.5-6 5.4-6.2a283 283 0 0 1-2.4-3.7c-.6.3 0 1 .1 1.4zM105.4 59c-2-1.4-5.6 1.2-6.1 1.4-1 .5-1.8-.5-1.3-1.5a2.8 2.8 0 0 1 2.4-1.2h1.4c.1-.2.2-.3 0-.4l-2.6-1.7c-.1 1-1.3 1.7-2 2.4a4.7 4.7 0 0 0-1.6 3.1 3 3 0 0 0 1.7 2.7 3.3 3.3 0 0 0 3.4-.5 19.2 19.2 0 0 1 1.9-1.2c1-.4 2.3 0 2 1.3a3.6 3.6 0 0 1-2.4 2.3 3.3 3.3 0 0 1-2 0c-.3-.2-1-.8-1.1-.2l3.5 2.5a2.3 2.3 0 0 1 1-1.5 11.7 11.7 0 0 0 2-2.1c1.2-1.7 1.6-4-.2-5.5z" fill="#fff"/>
  <path d="M105.4 59c1 .5-.6-.6 0 0zM142.2 19.6c-.7.7-8.4-2.4-9-2.8-.3-.1-.3-1.3-.7-.8l-1.2 1.4L130 19c-.3.4-.5.5 0 .8.8-.5 5.4 7.3 5 8.4-.7.3-7-5-7-5.4-.1-.2.2-1-.3-1-.2 0-.7 1-.9 1.1l-.9 1c.3.6.5 0 1 0a13.2 13.2 0 0 1 2.3 1.7l-3 .2c-.9 0-.4-.7-1-1l-2.2 2.8-1.4 1.6c.4.4.1.3.6 0s6.6 5 6.8 5.3c.4.4-.2 1 .4 1.2l1.8-2.2c0-.1.1 0 0-.2-.4-.3-.5.2-1 .2s-4.4-3.4-6-4.6l8.3-.3c.3 0 1.1.9 1 1.2s-.4.5.1.8l1.5-1.8.2-.2a.7.7 0 0 0 .2-.3l.2-.2c.4-.5 1.8-2 1.6-2.2-.4-.4-.7.5-1.3 0a12.8 12.8 0 0 1-1.4-2.2c-.3-.4.6-.8 1-1 .8-.5 3.2-1.2 3.5.3 0 .2-.3.5-.1.7s.2.2.3.1l3.3-4a1.5 1.5 0 0 0-.4-.1zm-7.4 2.1a5.7 5.7 0 0 0-1 .8l-1.6-2.7 3.6 1.5a3.8 3.8 0 0 0-1 .4zM125 32.9a5.4 5.4 0 0 0-7.6.8 5.3 5.3 0 0 0 .6 7.6 5.4 5.4 0 0 0 7.6-.9 5.3 5.3 0 0 0-.6-7.5zm-.3 6.5c-1.2 1.3-3.3.1-4.5-.7s-3.1-2.5-1.9-4c1.1-1.4 3.2-.3 4.2.4s3.5 2.6 2.3 4.2c.1 0 .2-.1 0 .2z" fill="#fff"/>
  <path d="M125 32.9c1.2 1-.3-.2 0 0zM124.7 39.5l.1-.1zM118.4 42c.1 0 .3.2 0-.1A6 6 0 0 0 110 43l-3 3.5c.3.6.8 0 1.3.2s6.2 5.1 6.3 5.4c.2.4-.2.5.2.8a41.3 41.3 0 0 0 5-6.1 4.3 4.3 0 0 0-1.4-4.8zm-1.3 6.7l-.6.6c-.4.3-6.5-4.6-6.2-4.9a4.4 4.4 0 0 1 3.5-1.3c2.2.6 5.3 3.3 3.3 5.6z" fill="#fff"/>
</svg>
