<svg xmlns="http://www.w3.org/2000/svg"><symbol id="icon-burger" viewBox="0 0 76 69"><path d="M72 46H4a4 4 0 0 0-4 4v4a4 4 0 0 0 4 4h1v1a10 10 0 0 0 10 10h46a10 10 0 0 0 10-10v-1h1a4 4 0 0 0 4-4v-4a4 4 0 0 0-4-4zm-4 13a7 7 0 0 1-7 7H15a7 7 0 0 1-7-7v-1h60zm5-5a1 1 0 0 1-1 1H4a1 1 0 0 1-1-1v-4a1 1 0 0 1 1-1h68a1 1 0 0 1 1 1zM16 38l6 4 5-4 6 4 5-4 5 4 6-4 5 4 6-4 5 4 7-5-2-2-5 3-5-4-6 4-5-4-6 4-5-4-5 4-6-4-5 4-6-4-5 4-5-3-2 2 7 5 5-4zm55-7v-3C70 12 56 0 38 0S6 12 5 28v3zM38 3c16 0 29 11 30 25H8C9 14 22 3 38 3z"/><ellipse cx="38" cy="15" rx="2" ry="2"/><ellipse cx="30" cy="10" rx="2" ry="2"/><ellipse cx="46" cy="10" rx="2" ry="2"/></symbol><symbol id="icon-copyright" viewBox="0 0 154 195.1"><path d="M77.8.6L77 .5.5 8.5V149L77 194.5l76.5-45.6V8.5zm65.7 142.6L77 182.8l-66.5-39.6V85.7L76.7 125l.1 7.2-45.4-27v6.9l45.5 27.4.1 7.4-45.5-27.2-.1 7L77 154.1l46-27.6V97l20.4-12.3zm0-66L125.1 88l-8.4 5-40-23.9V76L111 96.4l-.3.2-.7.4-4.9 2.9L76.8 83v7L99 103.3l-5.3 3.5-17-9.8v7l11 6.5-11.3 6.8L10.7 78l66-39.7zm0-7L76.6 30.8l-66 39.4V17.6l66.4-7 66.5 7z" stroke="#231f20" stroke-miterlimit="10"/></symbol><symbol id="icon-gift" viewBox="0 0 63 75"><path d="M60 22H36c13-7 14-11 14-13-1-4-6-7-10-6-5 2-7 11-8 17-2-6-4-14-8-18a7 7 0 0 0-6-2c-4 0-10 5-7 11 2 5 9 9 14 11H3a3 3 0 0 0-3 3v11a3 3 0 0 0 3 3v36h57V39a3 3 0 0 0 3-3V25a3 3 0 0 0-3-3zM42 6c2 0 5 1 5 3 0 3-3 5-5 6l-7 4c1-3 2-12 7-13zM19 16c-2-2-6-5-6-8 0-4 6-6 9-4 3 4 5 11 7 17a68 68 0 0 1-10-5zm6 56H6V39h19zm0-36H3V25h22zm10 36h-7V25h7zm22 0H38V39h19zm3-36H38V25h22z"/></symbol><symbol id="icon-house" viewBox="0 0 75 72"><path d="M29.6 65h16V41.2h-16V65zm13.1-3H32.6V44h10.1z"/><path d="M73 39.3l2-2.1-10-9.9V.5H51.3v13L37.5 0 0 37.2l2 2 8-7.7V69H6v3h64.1v-3h-5V31.6zm-19-36h8v21l-8-7.8zm8 65.8H13V28.5L37.5 4.1l24.6 24.4z"/><path d="M29.9 27a7.8 7.8 0 1 0 7.8-7.6 7.8 7.8 0 0 0-7.8 7.7zm7.8-4.9a5 5 0 1 1-5 5 5 5 0 0 1 5-5zM17 41.2h3v3.9h-3zm5.9 0h3v3.9h-3zm-5.9 6h3v3.9h-3zm5.9 0h3v3.9h-3zm26.1-6h3v3.9h-3zm6 0h3v3.9h-3zm-6 6h3v3.9h-3zm6 0h3v3.9h-3z"/></symbol><symbol id="icon-like" viewBox="0 0 22 20"><path d="M.5 8.5h3v11h-3z"/><path d="M3 9v10H1V9h2m1-1H0v12h4V8zm9.2-6.6l.3.3a1 1 0 0 1 .2.4v.2l-1 4.5-.2 1.2H20a1 1 0 0 1 .9.6V11a2.3 2.3 0 0 1 0 .3l-3 7a1 1 0 0 1-.9.7H8a1 1 0 0 1-1-1V8a.8.8 0 0 1 .2-.6h.1l6-6M13.1 0L6.6 6.6A1.7 1.7 0 0 0 6 8v10a2 2 0 0 0 2 2h9a2 2 0 0 0 1.8-1.2l3-7.1a1.7 1.7 0 0 0 .1-.7V9h.1a2 2 0 0 0-2-2h-6.3l1-4.6v-.3a2.1 2.1 0 0 0-.4-1.1l-1.1-1zM22 9z"/></symbol><symbol id="icon-mail" viewBox="0 0 16 12"><path d="M8 8a2.3 2.3 0 0 1-1-.3L0 4v7a1 1 0 0 0 1 1h14a1 1 0 0 0 1-1V4L9 7.7A2.3 2.3 0 0 1 8 8zm7-8H1a1 1 0 0 0-1 1v.8L8 6l8-4.2V1a1 1 0 0 0-1-1z"/></symbol><symbol id="icon-phone" viewBox="0 0 18 18"><path d="M3.6 7.8a15.6 15.6 0 0 0 6.6 6.6l2.2-2.2a.8.8 0 0 1 1-.2 10.4 10.4 0 0 0 3.6.6 1 1 0 0 1 1 1V17a1 1 0 0 1-1 1A17 17 0 0 1 0 1a1 1 0 0 1 1-1h3.5a1 1 0 0 1 1 1 11.3 11.3 0 0 0 .6 3.6 1.2 1.2 0 0 1-.2 1L3.6 7.8z" fill="#010101"/></symbol><symbol id="icon-social-facebook" viewBox="0 0 9 19"><path d="M6.51 3.37H9V0H6C2.76.18 1.6 2.39 2 6.13H0v3.53h2V19h4V9.66h3V6.13H6c0-1.05 0-2.41.51-2.76z" fill="#fff"/></symbol><symbol id="icon-social-twitter" viewBox="0 0 18 15"><path d="M11.6.2a3.4 3.4 0 0 1 3.8 1.1l2.1-.7a2.3 2.3 0 0 1-.9 1.8 1.7 1.7 0 0 0 1.4-.5 3 3 0 0 1-1.7 2C16.1 10.7 13 15.1 5.7 15h-.5c-.4 0-4.4-.5-5.2-1.9A6.8 6.8 0 0 0 5 12c-1-.3-2.8-.5-3.2-3a2.2 2.2 0 0 0 1.3.2C1.8 8.3.4 7.5.5 5.3a2.1 2.1 0 0 0 1.4.5c-.8-.2-2-3.3-1-5 2 2 4 3.7 7.6 3.8C8.8 2.3 9.7.8 11.6.2z" fill="#fff"/></symbol><symbol id="icon-social-youtube" viewBox="0 0 20 14"><path d="M17.2 0H2.8A2.8 2.8 0 0 0 0 2.8v8.4A2.8 2.8 0 0 0 2.8 14h14.4a2.8 2.8 0 0 0 2.8-2.8V2.8A2.8 2.8 0 0 0 17.2 0zM7 10.4V3.6L13.8 7z" fill="#fff"/></symbol><symbol id="txt-intro" viewBox="0 0 460 350"><path d="M165.5 69.6l-.2.2a6.5 6.5 0 0 1-4.5 2.2l2.8-4.8c1.8-3.2.1-6.1-2.7-6.1-2.3 0-4 .9-5.8 3.9l-1.5 2.6-1.2 2-.1.2c-2.2 2.5-4.3 4.5-5.6 4.5-.7 0-1-.4-.4-1.6l6.4-11.2h2.5l.9-1.5h-2.5l2.8-4.9h-3l-2.8 5h-2.7l-.9 1.4h2.7l-6 10.4c-1.2 2.2-.3 4.3 2 4.3 1.8 0 3.7-1.3 5.6-3.1 0 3.8 5.3 4.6 8.5.4h.7a9 9 0 0 0 6.1-2.9 2.6 2.6 0 0 0-1-1zm-6.4.2h-.1a1.8 1.8 0 0 0-1.8 1.8 2 2 0 0 0 .3 1c-1.4 2.5-4.8 2-3-1.1l2.3-4 1.4-2.4c2.1-3.6 5-2.2 3.2 1zm47.9-.2l-.2.2c-2.2 2.5-5 4.5-7 4.5-1.8 0-3-1.1-1.6-3.5l.3-.6c2 .8 5.6.5 7.8-3.4l.5-.8c1.6-2.7 0-4.8-2.4-4.8a6.3 6.3 0 0 0-5.6 3.4l-3 5-.1.2c-2.2 2.6-4.3 4.5-5.6 4.5-.7 0-1-.4-.4-1.6l4.3-7.6c1.3-2.3 0-4-1.6-4-1.3 0-2.7.8-4.2 2.4L193 55h-3l-8.4 14.5-.1.2c-2.2 2.5-4.3 4.5-5.6 4.5-.7 0-1-.4-.4-1.6l6.5-11.3h2.5l.8-1.4h-2.5l2.9-4.9h-3l-2.9 5h-2.7l-.8 1.4h2.7l-6 10.4c-1.3 2.2-.4 4.3 2 4.3a6.7 6.7 0 0 0 3.8-1.7L178 76h3l4.6-8c4.6-5.8 6.7-5 5.4-2.8l-4 6.8c-1.2 2.2-.3 4.3 2 4.3 1.9 0 3.8-1.4 5.7-3.3.2 2 1.7 3.3 4 3.3 3.5 0 6.9-2.7 9.3-5.6a2.5 2.5 0 0 0-1-1zm-5.7-4.2c1.7-3 4.8-2.5 3 .6l-.4.8c-1.5 2.4-3.4 2.4-4.5 2zm114.9 4.2l-.2.2a18.8 18.8 0 0 1-3.6 3.3c1-2.9.8-7.3 2.6-11l-2.2-1.4c-1.3 1.7-4 5.7-6.7 8.8l-.2.3c-2.1 2.5-4.2 4.5-5.6 4.5-.6 0-1-.5-.3-1.7l6.4-11.2h-3l-5.4 9.4c-2.3 2-4 3.2-4.6 3-.8-.4 0-1.5.4-2.1l5.8-10.2h-3l-4.6 8-.2.3a6.5 6.5 0 0 1-4.5 2.2l2.8-4.8c1.8-3.2.1-6.1-2.7-6.1-2.3 0-4 .9-5.8 3.9l-1.5 2.6-1.2 2-.1.2c-2.2 2.5-5 4.5-7 4.5-1.9 0-3-1.1-1.6-3.5l.3-.6c2 .9 5.5.5 7.8-3.4l.4-.8c1.6-2.7 0-4.8-2.4-4.8a6.3 6.3 0 0 0-5.6 3.5l-2.9 5-.2.2a20 20 0 0 1-7 5.7l6.8-11.5h-1.8a3.2 3.2 0 0 0-3.1-2.9 6.7 6.7 0 0 0-5.2 3.5l-2.8 5-.2.2c-2.2 2.5-4.3 4.5-5.6 4.5-.7 0-1-.5-.4-1.6l3-5.3a3 3 0 0 0-.4-4l-1.7-2a1.2 1.2 0 0 1 .2-1.8l-1.6-1.7c-1.7 1.6-1.8 3.3-.8 4.6l.3.4c-1.3 1.9-3.1 4.4-5 6.7l-.3.2a6.5 6.5 0 0 1-4.5 2.3l2.8-5c1.9-3 .2-6-2.6-6-2.3 0-4.1.9-5.9 3.9l-1.4 2.6-1.3 2-.1.2a20 20 0 0 1-7 5.7l6.7-11.4h-1.8a3.2 3.2 0 0 0-3.1-2.9 6.7 6.7 0 0 0-5.1 3.5l-4.2 7.2c-1.3 2.2-.4 4.3 2 4.3a5.7 5.7 0 0 0 2.8-1l-.8 1.4c-4 1.2-6.6 2.9-6.6 5.1 0 3 4.4 3.5 6.6-.2l2.2-4a18.3 18.3 0 0 0 7.3-4.5c0 3.8 5.3 4.5 8.5.4h.7a9 9 0 0 0 6.1-2.9c1.5-1.6 2.6-3.1 5-6.4l.4.5a1.5 1.5 0 0 1 .2 1.7l-3.2 5.5c-1.2 2.2-.3 4.3 2 4.3 1.6 0 3.2-1 4.8-2.5a2.3 2.3 0 0 0 2.6 2.5 5.7 5.7 0 0 0 2.9-1l-.8 1.4c-4 1.2-6.6 2.8-6.6 5.1 0 2.9 4.4 3.5 6.6-.2l2.2-4a18.4 18.4 0 0 0 7.3-4.6c.2 2 1.7 3.3 4.1 3.3s4.9-1.4 7-3.2c-.1 3.9 5.3 4.7 8.6.5h.6a8.4 8.4 0 0 0 3.3-.8c-.8 2 0 3.5 1.7 3.5s3.5-1.5 5-3a2.3 2.3 0 0 0 2.5 3c2.5 0 5.3-2.7 7.8-5.6 1.7-2 3.2-4 4.2-5.4-1.1 3-.5 8.7-3.4 8.7a1.7 1.7 0 0 1-1.4-1.1l-1.8 1a3.3 3.3 0 0 0 3.2 2.4 7.5 7.5 0 0 0 .9 0c3.1-.5 6.1-2.9 8.4-5.5a1.9 1.9 0 0 0-1.2-1.1zm-43-4.2c1.8-3 4.8-2.5 3 .6l-.4.8c-1.4 2.4-3.4 2.4-4.5 2zM216 81c-.6 1.1-1.6 1-1.6.1s.7-1.6 3-2.5zm1.4-6.7c-.7 0-1-.4-.4-1.6l4.2-7.3c1.6-2.8 4.8-2.1 3.4.6l-2.3 4c-1.8 2.9-3.7 4.3-5 4.3zm18.4-4.5h-.2a1.8 1.8 0 0 0-1.7 1.7 2 2 0 0 0 .3 1v.1c-1.4 2.4-4.9 2-3-1.1l2.2-4 1.4-2.5c2.1-3.5 5-2.1 3.2 1zM254.6 81c-.6 1-1.6 1-1.6.1s.7-1.7 3-2.6zm1.4-6.7c-.7 0-1-.4-.3-1.6l4.1-7.3c1.6-2.8 4.8-2.1 3.4.6l-2.3 4c-1.8 2.9-3.6 4.3-4.9 4.3zm29.6-4.5h-.2a1.8 1.8 0 0 0-1.7 1.7 2 2 0 0 0 .3 1v.1c-1.5 2.4-4.9 2-3.1-1.1l2.3-4 1.4-2.5c2.1-3.5 5-2.1 3.2 1zm-184.1-3.4h28.9v2h-28.9zm227.1 0h28.9v2h-28.9z" fill="#766458"/><path d="M163.3 0h7.7l-1.2 44.5h-14.6l-2-18.4-2 18.4h-14.6l-1-44.5h7.6l.6 36.8h.9L149.4 0h7.6l5 36.8h.7zm31.8 36.8v7.6h-20.9V0h21v7.6h-13.3v10.8h10.6V26h-10.6v10.8zm21.4 0v7.6h-18.3V0h7.7v36.8zm16.2-8.8l7.8-1.7v13.4a4.8 4.8 0 0 1-4.8 4.7h-11.4a4.7 4.7 0 0 1-4.8-4.6v-35a4.7 4.7 0 0 1 4.8-4.8h11.4a4.7 4.7 0 0 1 4.8 4.8v9l-7.8 1.7V7.6h-5.5v29.1h5.5V28zm28.5-28a4.7 4.7 0 0 1 4.8 4.8v35a4.8 4.8 0 0 1-4.8 4.7h-11.4a4.7 4.7 0 0 1-4.8-4.8v-35a4.7 4.7 0 0 1 4.7-4.7zm-3 7.6h-5.5v29.1h5.5zM291 0h7.6v44.5h-7.7V22.6L288 34h-7.5l-3-11.3v21.9h-7.6V0h7.6l6.8 21.5zm32.3 36.8v7.6h-20.9V0h21v7.6H310v10.8h10.6V26H310v10.8z" fill="#81b3d3"/><path d="M44.5 157.3a20.5 20.5 0 0 0-13-5c-3.5 0-8.3 2-8.3 6.3s5.3 6 8.7 7.1l5 1.5c10.4 3 18.5 8.4 18.5 20.5 0 7.4-1.8 15-7.8 20.1S33.9 215 26.3 215A46.2 46.2 0 0 1 0 206.4l8.3-15.7a26.7 26.7 0 0 0 17.3 7.7c4.6 0 9.5-2.3 9.5-7.5 0-5.5-7.7-7.4-11.9-8.6C11 179 3 175.7 3 161.2 3 146 13.8 136 28.8 136a51.2 51.2 0 0 1 23.5 6.2zm47.4-2.8V167h22v16.5h-22v13H115v16.4H72.4V138H115v16.5H91.9zm37.6-16.5H157c20.9 0 38 16.4 38 37.5s-17.3 37.4-38 37.4h-27.6zm19.5 58.5h4.4c11.6 0 21.5-6.4 21.5-21 0-13.5-8.8-21-21.3-21H149zm138-22.4c0 24.3-17.4 41.3-41.4 41.3s-41.4-17-41.4-41.3c0-22.7 19.9-38.6 41.4-38.6s41.4 16 41.4 38.6zm-62.6.1c0 13 9.6 22.4 21.2 22.4s21.1-9.5 21.1-22.4c0-10.3-9.5-19.8-21.1-19.8s-21.1 9.5-21.1 19.8zm73-36.2h19.5l35.6 45.8h.2V138h19.5v75h-19.5l-35.6-46h-.2v46h-19.5zm110.2 62l-5.2 13h-20.7l28.8-75h21.3l28.2 75h-20.8l-4.8-13zm13.6-38.8h-.2l-8 23.8h16.2zM108.1 287.6c7.7-2.6 8.3-12.2.7-12.2-2 0-4.5 1.5-6.2 4.4l-10.3 17.7a14.7 14.7 0 0 1-1.4 2.2c-2.6-3.6-1.9-9 1.8-11.4l-1.5-2c-8 5.1-5.7 19.8 7.6 19.8 11.4 0 16.6-13.7 9.3-18.5zM98.8 303a11 11 0 0 1-5.5-1.3 19.8 19.8 0 0 0 1.9-2.7l6.4-11h1c8.9 2 5.4 15-3.8 15zm4-17.3l3.1-5.2c2.8-4.8 6.3-2 4.4 1.6-1.4 2.7-3.6 3.6-7.5 3.6z" fill="#fff"/><path d="M140.2 299.9c-.6 2.2.6 4 3.2 4 1.5 0 3.4-1 5.2-2.4.2 1.4 1.4 2.4 3.3 2.4s4.3-1.4 6.4-3.3c-.4 2 .6 3.3 2.4 3.3 2.1 0 4.5-1.9 6.3-3.6-.4 2 .8 3.6 3.2 3.6 3.2 0 6.8-3.3 10-7a1.6 1.6 0 0 0-.2-.1c2.1-2.4 4-5 5.3-6.8-1.5 4-.7 11-4.3 11a2.1 2.1 0 0 1-1.8-1.4l-2.4 1.3a4.1 4.1 0 0 0 4.2 3h1.2c2.8-.4 5.5-2 8-4.2 0 2.4 2 4.3 5 4.3 4.4 0 8.6-3.4 11.8-7a3.3 3.3 0 0 0-1.4-1.3l-.3.3c-2.7 3.1-6.2 5.7-8.9 5.7-2.3 0-3.7-1.5-2-4.6l.4-.6c2.4 1 7 .5 9.9-4.4l.5-1c2-3.5 0-6-3-6a8 8 0 0 0-7.1 4.3l-3.7 6.3h-.1l-.3.3a23.7 23.7 0 0 1-4.5 4.1c1.2-3.6 1-9.1 3.3-14l-2.9-1.5c-1.6 2.2-5 7.1-8.4 11.1v.3c-2.8 3.2-5.5 5.7-7.1 5.7-.9 0-1.3-.6-.5-2l8.1-14.3h-3.8l-6.7 11.8c-3 2.7-5.1 4.1-5.9 3.8-1-.4 0-1.8.5-2.6l7.4-13h-3.8l-6 10.5a2.2 2.2 0 0 0-.3-.2l-.2.3c-2.8 3.2-5.4 5.7-7.1 5.7-.8 0-1.3-.6-.4-2l6-11h-2.1a4 4 0 0 0-4-3.8c-2 0-4.9 1.6-6.5 4.4l-3.9 6.6a2.9 2.9 0 0 0-.5-.3l-.3.3c-2.7 3.2-6.2 5.7-8.9 5.7-2.3 0-3.7-1.5-2-4.6l4-6.8c2.1-3.7 6-3.1 3.7.8l-.6 1h3.1l.6-1c2-3.5 0-6-3-6a8 8 0 0 0-7.1 4.3l-3.8 6.5a2.4 2.4 0 0 0-.3-.2l-.3.3c-2.7 3.1-6.2 5.7-8.9 5.7-2.3 0-3.7-1.5-2-4.6l.4-.6c2.4 1 7 .5 9.8-4.4l.6-1c2-3.5 0-6.1-3-6.1a8 8 0 0 0-7.1 4.3l-4 6.9c-2.4 4-.3 7.7 4.1 7.7 3.4 0 6.7-2 9.5-4.6-.1 2.7 1.9 4.6 5.1 4.6 3.2.1 6.3-1.6 9-4zm58.1-9.6c2.2-3.8 6-3.1 3.8.8l-.6 1c-1.8 3-4.2 3-5.7 2.5zm-54.2 9.2l5.3-9.2c2-3.5 6-2.6 4.2.8l-3 5.2c-2.3 3.6-4.6 5.3-6.1 5.3-.8 0-1.3-.6-.4-2zm-24.2-9.2c2.2-3.8 6-3.1 3.8.8l-.6 1c-1.8 3-4.2 3-5.7 2.5zM248.5 304c4.3 0 8.6-3.4 11.7-7a3.3 3.3 0 0 0-1.4-1.4l-.2.3c-2.8 3.2-6.3 5.7-9 5.7-2.3 0-3.7-1.4-2-4.5l.4-.7c2.5 1 7 .6 10-4.3l.5-1c2-3.5 0-6.1-3-6.1a8 8 0 0 0-7.1 4.4l-3.7 6.3h-.1l-.3.2c-2.7 3.2-5.4 5.7-7 5.7-1 0-1.4-.6-.5-2l5.4-9.7c1.7-2.8.1-5-2-5-1.6 0-3.3 1-5.2 3l6-10.6h-3.8l-10.7 18.6a2.4 2.4 0 0 0-.4-.3l-.3.3c-2.7 3.2-5.4 5.7-7 5.7-1 0-1.4-.6-.5-2l8.1-14.3h3.1l1.1-1.8h-3.1l3.6-6.2h-3.8l-3.6 6.2h-3.4l-1.1 1.8h3.4l-7.6 13.2c-1.6 2.9-.5 5.4 2.6 5.4 1.9 0 4-1.2 6-3l-1.5 2.7h3.8l5.8-10c5.8-7.4 8.4-6.4 6.8-3.6l-5 8.6c-1.6 2.8-.4 5.3 2.6 5.3 2.3 0 4.9-1.8 7.3-4.2.1 2.5 2 4.3 5.1 4.3zm3.1-13.7c2.2-3.8 6-3.2 3.8.8l-.6 1c-1.8 3-4.2 3-5.7 2.5zm112 5.3l-.3.3c-2.7 3.2-5.3 5.7-7 5.7-.9 0-1.3-.6-.5-2l12.9-22.3h-3.8l-5.6 9.6a4.1 4.1 0 0 0-3.5-2c-2 0-4.9 1.6-6.5 4.4l-3.7 6.4h-.2l-.3.2c-2.7 3.2-5.4 5.7-7 5.7-.9 0-1.4-.6-.5-2l5.5-9.7c1.6-2.9 0-5-2-5-1.7 0-3.4.9-5.3 2.9l1.5-2.5h-3.8l-6.1 10.5a2.6 2.6 0 0 0-.4-.2l-.2.3c-2.8 3.2-5.4 5.7-7.1 5.7-.8 0-1.3-.6-.4-2.1l6-10.8h-2a4 4 0 0 0-4-3.8c-2 0-5 1.6-6.6 4.4l-3.7 6.3-.2.3c-2.7 3.2-5.4 5.7-7 5.7-.9 0-1.4-.6-.5-2.1l3.8-6.7c1.3-2.3.7-3.6-.5-5.1l-2.2-2.6a1.5 1.5 0 0 1 .3-2.2l-2-2.1c-2.2 2-2.4 4-1 5.8l.3.5c-1.7 2.3-4 5.6-6.4 8.5a3.4 3.4 0 0 0 .2.3c-3.1 3.6-5.7 6-8.7 7.2l4.8-8.3H286l-.4.7c-2 3.6-4.3 6-7.3 6-2.6 0-3-2.5-.8-6.4l1-1.8a13.6 13.6 0 0 0 2.2.1c13.5 0 20-18 8.2-18-2.1 0-4.6 1.4-6.3 4.4l-6 10.2a6.1 6.1 0 0 1-3.3-5.4 6 6 0 0 1 2.4-4.8l-1.2-2.2a8.4 8.4 0 0 0 .9 14.6l-1.2 2c-2.6 4.6-2.1 9.7 3.2 9.7a7.6 7.6 0 0 0 4.2-1.1l-1 1.7c-5.1 1.5-8.3 3.6-8.3 6.5 0 3.6 5.6 4.4 8.3-.3l3-5c3.9-1.2 7.7-4 12-8.7a2.3 2.3 0 0 0-.3-.4c1.7-2 3-3.9 6-7.8l.5.6a1.9 1.9 0 0 1 .2 2.2l-4 7c-1.6 2.8-.5 5.4 2.6 5.4 2 0 4-1.3 6-3 0 1.7 1.1 3 3.3 3 1.5 0 3.4-1 5.3-2.5.1 1.5 1.3 2.5 3.2 2.5s3.8-1.1 5.8-2.8l-1.4 2.4h3.8l5.8-10.1c5.8-7.3 8.4-6.3 6.8-3.5l-5 8.6c-1.6 2.8-.4 5.4 2.6 5.4 2 0 4.3-1.4 6.4-3.4-.2 2 1 3.4 3.3 3.4 1.5 0 3.4-1 5.3-2.5.1 1.4 1.3 2.5 3.2 2.5 3.2 0 6.8-3.4 10-7a3.3 3.3 0 0 0-1.5-1.4zm-78-14.2c1.1-1.9 2.4-2.7 3.4-2.7 6 0 1.8 12.3-8.1 12.3h-.8zm-8 28.7c-.9 1.4-2.1 1.2-2.1.2s.9-2.2 3.8-3.3zm39.7-13.8c-2.3 3.6-4.6 5.3-6.2 5.3-.8 0-1.3-.6-.4-2l5.3-9.3c2-3.6 6-2.6 4.2.8zm36.7-.2c-2.3 3.7-4.7 5.5-6.3 5.5-.8 0-1.3-.6-.4-2l5.3-9.3c2-3.6 6-2.6 4.2.8zm-117.2 35.6l-.2.3c-2.7 3.1-5.4 5.7-7 5.7-1 0-1.4-.6-.5-2.1l5.4-9.6c1.7-2.9.1-5-2-5-1.6 0-3.3.9-5.2 2.8l1.4-2.4H225l-6.1 10.5a2.7 2.7 0 0 0-.5-.2l-.2.2a8.2 8.2 0 0 1-5.8 2.9l3.6-6.2c2.3-4 .2-7.8-3.4-7.8-2.9 0-5.2 1.2-7.3 5l-2 3.3-1.5 2.8a2.5 2.5 0 0 0-.4-.2l-.2.3c-3.2 3.6-5.8 6-8.8 7.2l10.4-17.8H199l-6.7 11.7c-3 2.7-5.2 4.2-6 3.8-.9-.4 0-1.8.5-2.6l7.4-13h-3.8l-6 10.6a2.5 2.5 0 0 0-.4-.2l-.2.3c-2.8 3.1-5.4 5.7-7 5.7-1 0-1.4-.6-.5-2.1l5.4-9.6c1.7-2.9.1-5-2-5-1.6 0-3.3.9-5.2 2.8l1.4-2.4H172l-6 10.5a2.6 2.6 0 0 0-.4-.2l-.3.2c-2.7 3.2-5.4 5.7-7 5.7-.9 0-1.4-.5-.5-2l6.1-10.8h-2.1a4 4 0 0 0-4-3.8c-2 0-5 1.6-6.5 4.4l-4 6.8a2.2 2.2 0 0 0-.8-.5l-.2.3c-2.8 3.1-6.1 5.7-9.9 5.7-2.6 0-4.1-2.6-1.9-6.5l1-1.9a13.6 13.6 0 0 0 2.2.2c4 0 8.7-2 11.7-7.3a10.5 10.5 0 0 0 1.5-5.1c0-3.4-2.2-5.7-5-5.7-2 0-4.6 1.5-6.3 4.5l-5.9 10.2a6.1 6.1 0 0 1-3.4-5.4 6 6 0 0 1 2.5-4.8l-1.3-2.2a8.4 8.4 0 0 0 1 14.6l-1.2 2c-2.7 4.6-1.1 9.7 4.2 9.7 4.3 0 7.4-1.9 10-4.4-.8 2.4.4 4.4 3.1 4.4 1.5 0 3.4-1 5.3-2.5.1 1.5 1.3 2.5 3.2 2.5s3.8-1.1 5.8-2.8l-1.4 2.4h3.8l5.8-10c5.8-7.3 8.4-6.4 6.8-3.6l-5 8.6c-1.6 2.8-.4 5.4 2.6 5.4 2 0 4.3-1.4 6.5-3.4-.5 2 .5 3.4 2.4 3.4s3.9-1.5 5.6-3l-2 3.5c-5.2 1.5-8.4 3.7-8.4 6.5 0 3.7 5.6 4.4 8.3-.2l3-5a24 24 0 0 0 9.5-6.2c-.5 5.3 6.5 6.5 10.8 1h.8a11 11 0 0 0 5-1.4l-2.5 4.4h3.8l5.8-10c5.8-7.3 8.4-6.4 6.7-3.6l-4.9 8.6c-1.6 2.8-.5 5.4 2.6 5.4s6.8-3.4 9.9-7a3.3 3.3 0 0 0-1.6-1.3zm-94.4-14.2c1.1-2 2.4-2.8 3.4-2.8 1.5 0 2.1 1 2.1 2.4 0 3.5-4.3 9.9-10.2 9.9h-.8zm13.4 14.8c-2.3 3.6-4.6 5.3-6.2 5.3-.8 0-1.3-.5-.4-2l5.3-9.3c2-3.5 6-2.6 4.2.8zm28.8 13.8c-.8 1.4-2 1.2-2 .2s.9-2.1 3.8-3.3zm25.6-14.2h-.2a2.2 2.2 0 0 0-2.2 2.3 2.5 2.5 0 0 0 .3 1.3c-1.7 3.1-6 2.5-3.8-1.4l2.8-5 1.9-3.1c2.6-4.6 6.3-2.8 4 1.2zm114.6 1.1a2.4 2.4 0 0 0-1.4-1.3l-.3.3a23.6 23.6 0 0 1-4.6 4c1.3-3.5 1-9 3.3-14l-2.8-1.5c-1.6 2.2-5 7.1-8.4 11.2l-.3.3c-2.7 3.1-5.4 5.7-7 5.7-.9 0-1.7-.9-1.7-2.6v-1.6c2.7.4 5.5-1.4 7.3-4.5l1-1.8c3.5-6-2.3-8-6.1-4.5l5.4-9.4h-3.8l-10.9 18.8a3 3 0 0 0-.7-.4l-.2.3c-2.7 3.1-6.3 5.7-9 5.7-2.3 0-3.6-1.5-2-4.6l4-6.8c2.2-3.7 6-3.1 3.8.8l-.6 1h3.2l.6-1c2-3.5 0-6-3-6a8 8 0 0 0-7.2 4.3l-3.7 6.4-.2-.1-.3.3c-2.7 3.1-5.4 5.7-7 5.7-1 0-1.4-.6-.5-2.1l8-14.2H276l-6.8 11.8c-2.8 2.6-5 4-5.8 3.7-1-.4 0-1.8.5-2.6l7.4-13h-3.8l-7.4 12.8a22.7 22.7 0 0 1-2.4 2c1.2-3.6 1-9.1 3.2-14l-2.9-1.6a502.8 502.8 0 0 1-13.8 17.8 5.5 5.5 0 0 0 1.5 1.3c2.1-2.5 9.3-11.8 10.7-13.6-1.5 4-.7 11-4.3 11a2.1 2.1 0 0 1-1.8-1.4L248 337a4.1 4.1 0 0 0 4.2 3.1 10.4 10.4 0 0 0 1 0h.1a13.2 13.2 0 0 0 5.7-2.4 2.3 2.3 0 0 0 2.5 2.4c2 0 4.4-1.9 6.2-3.6-.3 2 .9 3.6 3.3 3.6s5-1.9 7.4-4.3c0 2.5 2 4.3 5.2 4.3s6.1-1.7 8.8-4l-2.1 3.7h3.7l4.3-7.5v3c0 3.2.7 4.8 3.7 4.8s6.8-3.3 10-7c2-2.4 4-5.1 5.3-6.9-1.5 4-.7 11-4.3 11a2.1 2.1 0 0 1-1.8-1.4l-2.4 1.3a4.1 4.1 0 0 0 4.2 3 10.6 10.6 0 0 0 1 0h.2c4-.6 7.8-3.7 10.6-7zm-25.2-3l1-2c4.5-6 7.4-4.3 6-2l-1.6 3c-1.1 2-4.5 3.4-5.3.9zm25 5.6a2.2 2.2 0 0 0-2.1 2.2 2.1 2.1 0 0 0 2.1 2.2 2.2 2.2 0 0 0 2.3-2.2 2.2 2.2 0 0 0-2.3-2.2zm.2-1.5h3.9l11.9-20.8h-3.8l-12 20.8zM80.5 277.4a2.5 2.5 0 0 1-.2.9 2.4 2.4 0 0 1-.5.8 2.6 2.6 0 0 1-.9.6 2.6 2.6 0 0 1-1 .2 3.4 3.4 0 0 1-1.4-.3 3 3 0 0 1-1-.7 3.1 3.1 0 0 1-.6-1 4 4 0 0 1-.2-1.3 6 6 0 0 1 1.8-4.3 5.8 5.8 0 0 1 .8-.7 9.2 9.2 0 0 1 1-.6l.7-.3.3-.2 1.4 2-.9.4a4.6 4.6 0 0 0-.8.5 3 3 0 0 0-.7.8 2.2 2.2 0 0 0-.3 1 2.7 2.7 0 0 1 1.7.5 2 2 0 0 1 .8 1.7zm7.8 0a2.4 2.4 0 0 1-.1.9 2.4 2.4 0 0 1-.6.8 2.6 2.6 0 0 1-.8.6 2.7 2.7 0 0 1-1 .2 3.4 3.4 0 0 1-1.4-.3 3 3 0 0 1-1-.7 3.1 3.1 0 0 1-.6-1 4 4 0 0 1-.2-1.3 6 6 0 0 1 1.7-4.3 5.6 5.6 0 0 1 .9-.7 9 9 0 0 1 .9-.6l.7-.3.4-.2 1.3 2-.8.4a4.6 4.6 0 0 0-.8.5 2.9 2.9 0 0 0-.7.8 2.1 2.1 0 0 0-.3 1 2.7 2.7 0 0 1 1.7.5 2 2 0 0 1 .7 1.7zm265.3 59a2.5 2.5 0 0 1 .2-.8 2.4 2.4 0 0 1 .5-.9 2.6 2.6 0 0 1 .8-.5 2.7 2.7 0 0 1 1.1-.2 3.5 3.5 0 0 1 1.3.2 3 3 0 0 1 1.1.7 3.1 3.1 0 0 1 .6 1 4 4 0 0 1 .2 1.3 6 6 0 0 1-1.8 4.3 5.7 5.7 0 0 1-.8.7 8.1 8.1 0 0 1-1 .6l-.7.3-.3.2-1.4-2 .8-.4a4.6 4.6 0 0 0 1-.5 3 3 0 0 0 .6-.8 2.1 2.1 0 0 0 .3-1 2.7 2.7 0 0 1-1.7-.5 2 2 0 0 1-.8-1.7zm-7.8 0a2.4 2.4 0 0 1 .1-.8 2.4 2.4 0 0 1 .5-.9 2.6 2.6 0 0 1 .9-.5 2.7 2.7 0 0 1 1-.2 3.5 3.5 0 0 1 1.4.2 3 3 0 0 1 1 .7 3.1 3.1 0 0 1 .6 1 4 4 0 0 1 .2 1.3 6 6 0 0 1-1.8 4.3 5.8 5.8 0 0 1-.8.7 9.3 9.3 0 0 1-.9.6l-.7.3-.4.2-1.4-2 .9-.4a4.6 4.6 0 0 0 .8-.5 3 3 0 0 0 .7-.8 2.2 2.2 0 0 0 .3-1 2.8 2.8 0 0 1-1.7-.5 2 2 0 0 1-.7-1.7z" fill="#fff"/></symbol><symbol id="txt-review-intro" viewBox="0 0 458 78"><path fill-rule="evenodd" fill="#FFF" d="M437 75.9l-3.8-13.4h-28.6l-3.8 13.4h-20l25.5-74h25.2l25.6 74H437zm-15.5-52.2a67.5 67.5 0 0 1-2.6-10l-.3 1.2a13 13 0 0 0-.4 1.8v.4a73 73 0 0 1-1.7 6.6l-7.6 24.5H429l-7.5-24.5zm-97.8 14a55.5 55.5 0 0 1-5.5-10.3l-1.2-2.8a111.7 111.7 0 0 1 1.2 14.8v36.5h-19.5v-74h19.5l28 38a57.7 57.7 0 0 1 5.3 10l1.3 3a43 43 0 0 0-.5-5 87.8 87.8 0 0 1-.5-9.7V2h19.4v74h-19.4l-28.1-38.3zm-39.5 6.6a29.6 29.6 0 0 1-2.4 9.5 37 37 0 0 1-15.2 17.5 41.5 41.5 0 0 1-40.2 1.8A37.8 37.8 0 0 1 211 58.5a38.3 38.3 0 0 1-5-25.8 46 46 0 0 1 4.2-12 36.8 36.8 0 0 1 14.9-15.1A40.7 40.7 0 0 1 247.8.5l2.8.2a42.4 42.4 0 0 1 16.7 6 40.3 40.3 0 0 1 17 37.5zm-20-6.5v-1.4c-.4-3.4-1.4-6.6-3-9.7a17.8 17.8 0 0 0-6.7-7.2 31.6 31.6 0 0 0-4.7-1.8 50 50 0 0 0-4.6-.6c-4 0-7.6 1.2-11 3.7a19.3 19.3 0 0 0-7.1 10.8 194 194 0 0 0-1.2 6l-.1 1.6v.8l.1.9c.2 4.1 1.5 8 3.8 11.7a16 16 0 0 0 10.8 7.6 14.5 14.5 0 0 0 3 .5h1.3c4.1 0 7.8-1.2 11.1-3.6a20.5 20.5 0 0 0 8.2-14.8 24.7 24.7 0 0 0 .2-4.5zm-83.2 31a33.6 33.6 0 0 1-12 5.2 80.7 80.7 0 0 1-16.5 1.9h-23.8v-74h28.7c4.2.3 8.3 1 12.3 1.8 4.1 1 7.8 2.7 11.3 5.1 4.3 3 7.7 7 10 12a40.3 40.3 0 0 1 4.2 16.7v2.9a41.2 41.2 0 0 1-4 16A32 32 0 0 1 181 68.8zM175 38l-.2-1c-.2-2.9-.9-5.7-2-8.5a16.5 16.5 0 0 0-10.6-9.2c-2-.5-4-.7-6.1-.8h-7.5v40.8h1.5l.8.1h.7a52 52 0 0 0 10.8-1.2 15.8 15.8 0 0 0 10.7-9.7A26 26 0 0 0 175 39v-1zM69.2 1.9h45.5V18H89.2v13h24v15.7h-24v12.6h25.6v16.6H69.3v-74zM54.7 54.3c-.5 4-1.8 7.8-3.9 11.5-2.1 3.6-5 6.4-8.5 8.3a30.3 30.3 0 0 1-8.3 2.7 36.1 36.1 0 0 1-6.8.7h-1.3A41.7 41.7 0 0 1 .2 66.8l9.3-14.9.2.2.2.2c2 2.3 4.4 4.5 7 6.4a16 16 0 0 0 9.4 3.3h.3l.3.1h.3a8.7 8.7 0 0 0 2-.2c1.2-.2 2.4-.7 3.5-1.4s2-1.5 2.6-2.5l.2-.5.3-.5a14 14 0 0 0 .4-2.7c0-2.1-.9-3.9-2.7-5.3a21.6 21.6 0 0 0-8.3-4 95.1 95.1 0 0 0-2.7-.7A37 37 0 0 1 12 39.8c-3.4-2-5.7-5-6.9-8.9a35.4 35.4 0 0 1-1.2-6v-.8a28.8 28.8 0 0 1 .4-3.8c.2-1.5.6-3 1.1-4.6.6-1.5 1.3-3 2.1-4.2 2.5-4 5.7-7 9.6-8.8A29.2 29.2 0 0 1 35.5.6a41 41 0 0 1 16 6.2L45 21c-2.1-1.5-4.3-2.9-6.6-4a16.7 16.7 0 0 0-7.6-1.8H30c-1.8.3-3.5 1-5 2.4-1.6 1.4-2.3 2.8-2.3 4.4v.7l.3.7c.2.5.4 1 .8 1.5l1.3 1.3c.8.6 2 1.3 3.7 1.9a111.1 111.1 0 0 0 12.9 3.7 18 18 0 0 1 9.8 7.8c2.1 3.6 3.2 7.4 3.3 11.4v3.3z"/></symbol></svg>