<svg xmlns="http://www.w3.org/2000/svg" width="506" height="73">
  <path fill-rule="evenodd" fill="#ffffff" d="M502 25l1 1h1l-6 3-4 2c0 2-4 1-10 4l-4 9-2 4-1 2v1l-3 8-1 2 2-1 1 1 1-1v3l-2 3c-2 0-1 1-3 2h-1l-2 4a38 38 0 0 1-1-2l-2 1h-3l-1 1-3-2-3-3-2-4-1-5v-9l-1-1 1-2v-4 2l1-3v-3h-1l-2 1-1 2-3 6v1l-2 2v1l-2 4-1 1h-1v1l-4 6-4 1v-1l-1-3 1-5 2-7v-2l1-4 1-4-4 12-2 8-2 9v4l-2-3c-2-2-2-3-2-6l1-6-1-1-9 8c-1 2-3 3-9 6l-4 3c-1 0-4-2-4-4-1-4-4-5-4-9l1-5 3-2c0-3 0-3 6-11 2-2 2-4 6-7 5-8 9-12 13-12l4 2 6 3s5 1 5 4l-1 2 1-1 2-4 2-4 2-1 1 1v4l-1 4-1 5v5l2-1 3-4 5-7 3-4 5-4 3-2v2l1 1-2 7-1 7-1 5 1 4 2 8v4l2 3 1 1 1-3-1-1 4-16 3-6-7-9 2-1h8l2-4 4-10 3-10h1s2-2 3-1l3 1 2 3v1l-1 2-7 16 1 1h4l12-2h1l-4 2zm-77 8l-3 2-13 14-7 11 1 1c2 0 4-4 9-7l7-7c0-1 3-7 5-8l2-4-1-2zm2 0h1-1zm-13-8l-3 1-2 1-2 1-5 3a40 40 0 0 0-10 11l-1 4-1 2-1 4-1 3v3h-1v5l-1 2v1l-1-1-1-1-1 2v1h-2v-1h-1v-1l-1-2-1-1v-1-1-1-1-1-1h-1l-3-4h-1l-8 12-7 3-5-2c-1-2-6-6-6-8v-1 2l-2 9v4l-2-3c-2-2-2-3-2-6l1-6-1-1-9 8c-1 2-3 3-10 6-1 2-2 3-4 3l-4-4c-1-4-3-5-3-9l1-5 3-2c0-3 0-3 6-11 2-2 1-4 5-7 6-8 10-12 14-12l4 2 6 3s5 1 5 4l-1 2v1l2-5c0-1 3-9 5-9l2 5v3l-1 3 1 3-3 7h-1v1c0 1-4 9-4 14l2 2h1l3-2c4-3 5-5 6-8l7-17h2l4 3h1l1 4-1 5v1l1-1v-2l1-2v-3-3l1-2 1-3 1-2v-1l2-1 1-1v-1h3v1l2 1 1 1 1 1 1 1 2-1 5-2 5-2 3-1h1l1 1 1 1 1 1-2 1zm-73 8l-3 2-13 14-7 11 1 1 9-7 7-7c0-1 3-7 5-8l2-4-1-2zm2 0zm38 12v-1 1zm-55-19h1l-5 3-4 2c-1 2-5 1-11 4l-4 9-1 4-1 2v1l-4 8-1 2v3s-1 5-4 8v-6-3-1-3-1c0-1 0-8 4-16l2-6-5-6c-3 2-9 7-9 13l1 8 2 8-2 5c-2 6-3 5-3 5l-10-1c-2-3-6-2-9-9v-1c-3 4-10 9-17 9-5 0-10-7-13-10l-2-4-4-1-2-1-9-4h-1l-7-4-2-1-1 1-6 3-1 1v1l-1 6-2 4v1l-2 4h-1-1l-3-2v-7-1-1-5-1l1-3 2-8 4-15v-2l1-4c1-1 0-2 6-3h3l12-6 6-1 5 1c-1 0 6 3 6 10v3c-2 4-1 3-12 11l-7 4v1l-1 2v2h-1l16 8-1-3 2-4 2-4c2-1 0-3 4-5l1-2 5-5 3-2 2-2h1l2 1 7 2c5 1 11 6 11 9 0 12-16 14-18 14-5 0-8-1-9-2l-4 8h1l1 3h-2l1 1c2 3 2 3 6 3 0 1 1 2 4 2l7-2 10-6c5-4 10-7 13-12v-6l3-9 2-7 6-4c-1 0 7 6 9 6h1v1l-2 5h4l3-4 3-10c2-2 2-6 3-10h1s3-2 4-1l3 1 2 3-1 1-1 2-6 16v1h4l12-2h1l-4 2 1 1zm-103-7l3-6-2-1-7 2-8 5-4 7-1 5 7-3c1-1 2 1 12-9zm20 22l5-2c6-4 6-7 7-9l-2-1-3 1c-5 3-6 7-9 11h2zm37 13l-2-9-11 8-1 2-1 1h4l2 1h1l7 2 1-1v-4zm-41 0zm-91 12h-3c-2 2-5 3-8 3h-3l-4-3c-4 0-4-7-5-8l1-1-1-1 1-6s2 0 2-2v-2l6-9c1-2 14-15 16-15h2l2-3 2 2h3l4 2c7 0 7 8 7 15 0 3 0 6-2 9-2 8-6 11-20 19zm11-31h-1v-1c0-2 0-4-2-4l-6 5c-8 7-11 11-14 16l-3 6 3 3c4 0 8-2 13-5l3-2 3-5 3-8 1-4v-1zm-20-9h1l-5 3-4 2c-1 2-5 1-11 4l-4 9-2 4v2l-1 1-3 8-1 2v3s-1 5-4 8v-6-3l-1-1 1-3v-1c0-1 0-8 3-16l3-6-5-6c-3 2-10 7-10 13l2 8 1 8-1 5c-2 6-3 5-4 5l-10-1c-1-3-6-2-8-9v-1c-4 4-10 9-17 9-5 0-11-7-14-10l-2-4-3-1-2-1-9-4h-1l-7-4-2-1-1 1-7 3v2l-2 6-1 4v1l-2 4H5 4s-2 0-3-2v-2H0v-5l1-1-1-1 1-5v-1l1-3 2-8c1-5 1-8 4-15v-2l1-4c1-1 0-2 5-3h4l12-6 6-1 5 1c-1 0 6 3 6 10v3c-2 4-1 3-13 11l-6 4v1h-1v3l-1 1 15 8v-3l2-4 2-4c1-1 0-3 3-5l2-2 5-5 3-2 2-2h1l2 1 7 2c4 1 11 6 11 9 0 12-16 14-18 14l-10-2-3 8h1l1 3h-2l1 1c2 3 2 3 5 3 1 1 2 2 5 2l6-2 11-6c5-4 10-7 12-12l1-6 3-9 2-7 5-4s7 6 10 6h1v1l-2 5h4l3-4 3-10 3-10h1l3-1 3 1 2 3v1l-1 2-7 16h1v1h4l12-2h1l-4 2 1 1zM35 19c3-2 4-6 4-6l-2-1-7 2-8 5-5 7-1 5 8-3c1-1 2 1 11-9zm21 22l5-2c6-4 6-7 7-9l-2-1-3 1c-5 3-6 7-10 11h3zm37 13l-3-9-10 8-1 2-1 1h4l2 1h1l7 2 1-1v-4zm-41 0z"/>
</svg>
