<svg id="resto-logo" xmlns="http://www.w3.org/2000/svg" viewBox="0 0 81 30">
  <g id="XMLID_1">
    <path class="st0" fill="#f34949" d="M72.9 20.5l.3.5.2-.2.2.1.5 1 .2-.3.1.1.2.2-.1-.3.2-.1-.2-.5h.5v-.2l.3-.3.3-.2.3-.3 1.2.5H77.4v-.2l.5-.1-.2.3.2.2v.1l.1-.1v-.2h.1l.3.5.2-.2.2.1.5 1 .2-.3.1.1.2.2.3.5.1.1-.1.2.2.3h-.2v.1h.1l.1.5v1l-.2-.1v.1l.1.2-.5.2-.6.2-.4.5-.7-.1h-.1l-1-.3-1-.7-.3-.3-.4-.1.1-.1-.2-.2v.7l-.2-.1v.1l.1.2-.5.2-.6.2-.4.5-.7-.1h-.1l-1-.3-1-.7-.3-.3-.4-.1.1-.1-.2-.2v-.3l-.6-.4-.5-.2.1-.2h.1v-.2l.1-.2-.1-.3.2-.2h.2l-.1-.3.2-.1-.2-.5h.5v-.2l.3-.3.3-.2.3-.3 1.2.5H72.2v-.2l.5-.1-.2.3.2.2v.1l.1-.1v-.2z"/>
    <path class="st1" fill="#3a3a3a" d="M65.5 9.9c2.6 0 3 3.2 3 5.9a8 8 0 0 1-.9 3.7c-.7 3.1-2.4 4.4-8.2 7.4l-1.1.2c-.8.9-1.8 1.3-3.2 1.3a3 3 0 0 1-1.3-.2L52.3 27h-.1c-1.6 0-1.6-2.6-1.8-2.9l.2-.5-.2-.5.2-2.2c.2 0 1-.3 1-.8l-.2-1c1-.9 1-1.2 2.4-3.5a36 36 0 0 1 6.4-6.1l.7.1c.2 0 .6-.4 1.1-1.1l.8.6 1.2.3c.4 0 .9.2 1.5.5zM64 15.3v-.4c-.2 0-.3-.2-.4-.3l.1-.4c0-.5-.3-1.3-.8-1.3-.4 0-1.2.6-2.5 1.7-3.2 2.8-4.4 4.6-5.8 6.4-.2.2-.8 2.2-.8 2.5 0 .4.6 1.1 1 1.1 1.5 0 3.2-.6 5-1.9l1.5-.6 1.2-2.2c.2-.3.6-2.8 1-3 0-1 .2-1.5.5-1.6zM52.7 4.1c-1.1 2.1-1.6 4-2.6 6.3l.2.4 1.6.1c1.8 0 2.5-.2 4.9-.8h.3l-1.5.9.3.2h.4c-.2.4-2.1 1.1-2.2 1.2-.4 0-.2.6-1.6 1-.2.6-1.8.4-4.2 1.7l-1.6 3.5c0 .3-.2.8-.6 1.4l-.3.8-.1.5c-.4.6-1.1 2.8-1.4 3l-.3 1.1v1c-.2.2-.6 2.2-1.6 3.4a21 21 0 0 1-.2-2.5l.2-1.2-.2-.4.2-1.4-.1-.3c0-.2.2-3.2 1.5-6.1a7 7 0 0 1 1-2.6c0-.3-.6-.9-1.8-2.3-1.4 1-4 2.9-4 5.3l.6 3.2.6 3.2-.6 1.9c-.9 2.3-1.2 1.9-1.4 1.9-1.1 0-2.2 0-4-.4-.6-1-2.4-.8-3.3-3.5l-.1-.2.9-1 .5.1 1-.2c.2 0 .6.6.8.6l.4-.1c.4 0 2.4.8 2.8.8l.4-.1v-1.7c0-.7-.4-1.9-1.1-3.7L33.3 21l-.4-.6c1.5-1.1 2.9-2.3 3.6-3.6l.1-2.5c0-.3.4-1.5 1.3-3.5.5-1.1.8-2.1.8-2.9l2.2-1.8c-.1-.1 2.8 2.3 3.8 2.3h.3V9c0 .7-.2 1.4-.7 2.1l1.7.1c.3-.3.3-.5.9-1.7 0-.7.4-1 1.4-4.2.6-.6.9-2.1 1.2-3.7h.4c.2 0 1.1-1 1.4-.7l1.2.6c.2 0 .7 1 .8 1.2l-.3.4-.3 1zM21.2 22c0 .1 0 .1 0 0 0 .1 0 .1 0 0z"/>
    <path class="st1" fill="#3a3a3a" d="M24.5 16.2c2.6-1.7 2.6-2.7 2.9-3.6l-.7-.5-1.2.7c-2 1.2-2.6 2.5-3.9 4.1l.8.2c.4.1 1.1-.2 2.1-.9zM3.6 24l-.9 1.6-.3.4H2s-.6-.3-1.2-1.1l-.1-.1v-.6L.6 24v-1.6-.4-.5c.2-.5.2-1.4.3-2.2v-.1l.3-1.5c.6-2 .2-1.5.6-2.9.6-2.1.7-3.2 1.6-6.1v-.2l.2-.4v-.2l.5-1.5c.1-.4-.1-.9 2-1.4l.4.1H7l.5-.1c.6-.4 4-2.2 4.9-2.2l2.3-.4c.6 0 1.2.1 1.9.4-.2-.2 2.5 1 2.5 3.9 0 .5 0 .9-.2 1.2V8c-.7 1.7-.3 1.1-4.9 4.3.1-.1-2.6 1.3-2.6 1.8l.1.1-.4.3c-.2 0-.3.3-.3.7v.2l-.1.4c0 .2 1.7.9 6.1 3.3l-.1-1.1c.2-.3.3-.9.5-1.8 0-.4.5-.1.8-1.6.7-.4.2-.9 1.5-1.9l.7-.6 2-2.2 1.2-.7c.6-.2.9-.5 1-.9h.3c.2 0 .7.6.9.6l2.8.4c1.8.4 4.2 2.4 4.2 3.9 0 4.9-6.4 5.4-7 5.4-2 0-3.3-.2-3.9-.7a9.6 9.6 0 0 0-1.4 3l.4.2c.4.3.5.9.6 1h-.1l-.7.3.3.4c.7 1 .8 1 2.2 1.2.2.1.6.6 1.8.6.6 0 1.5-.2 2.6-.6 1.5-1 3.9-2.2 4.1-2.3l1.5-1.2.4.6-1.2.9-.3.8-.3.3-.9 1a10.5 10.5 0 0 1-7 3.2c-1.8 0-4.1-2.4-5.2-3.9l-.8-1.4-1.5-.6-.7-.2-3.6-1.7-.2-.1-3-1.4-.8-.3-.4.1c-.8.5-1.4 1-2.5 1.2l-.1.5v.3c0 .6-.4 1.4-.7 2.2v.1L3.6 24zm6.2-12c.6-.4.9.2 4.7-3.6 1-1 1.4-2.4 1.4-2.5l-1-.2c.2-.2-2.1.6-2.7.6-.3.2-.9.3-3.2 1.9-.3.2-.8 1.1-1.7 3L6.9 13c.7-.2 1.5-.4 2.9-1z"/>
  </g>
</svg>
